<svg xmlns="http://www.w3.org/2000/svg" version="1.1" id="svg10486" width="550" height="550"><defs id="defs10490"><clipPath clipPathUnits="userSpaceOnUse" id="clipPath951"><rect style="color:#000;visibility:visible;opacity:1;vector-effect:none;fill:#ff8;fill-opacity:.468182;fill-rule:nonzero;stroke:none;stroke-width:8.13732px;stroke-linecap:round;stroke-linejoin:bevel;stroke-miterlimit:4;stroke-dasharray:none;stroke-dashoffset:0;stroke-opacity:1;marker:none;enable-background:accumulate;display:inline;overflow:visible" id="rect953" width="292.519" height="288.735" x="475.968" y="260.427" transform="rotate(90)" ry="0"/></clipPath><clipPath clipPathUnits="userSpaceOnUse" id="clipPath955"><rect style="color:#000;visibility:visible;opacity:1;vector-effect:none;fill:#ff8;fill-opacity:.468182;fill-rule:nonzero;stroke:none;stroke-width:8.13732px;stroke-linecap:round;stroke-linejoin:bevel;stroke-miterlimit:4;stroke-dasharray:none;stroke-dashoffset:0;stroke-opacity:1;marker:none;enable-background:accumulate;display:inline;overflow:visible" id="rect957" width="292.519" height="288.735" x="475.968" y="260.427" transform="rotate(90)" ry="0"/></clipPath><clipPath clipPathUnits="userSpaceOnUse" id="clipPath955-3"><rect style="color:#000;visibility:visible;opacity:1;vector-effect:none;fill:#ff8;fill-opacity:.468182;fill-rule:nonzero;stroke:none;stroke-width:8.13732px;stroke-linecap:round;stroke-linejoin:bevel;stroke-miterlimit:4;stroke-dasharray:none;stroke-dashoffset:0;stroke-opacity:1;marker:none;enable-background:accumulate;display:inline;overflow:visible" id="rect957-6" width="292.519" height="288.735" x="475.968" y="260.427" transform="rotate(90)" ry="0"/></clipPath><clipPath clipPathUnits="userSpaceOnUse" id="clipPath951-7"><rect style="color:#000;visibility:visible;opacity:1;vector-effect:none;fill:#ff8;fill-opacity:.468182;fill-rule:nonzero;stroke:none;stroke-width:8.13732px;stroke-linecap:round;stroke-linejoin:bevel;stroke-miterlimit:4;stroke-dasharray:none;stroke-dashoffset:0;stroke-opacity:1;marker:none;enable-background:accumulate;display:inline;overflow:visible" id="rect953-5" width="292.519" height="288.735" x="475.968" y="260.427" transform="rotate(90)" ry="0"/></clipPath></defs><g id="g10494" transform="translate(150.82 -292.094)"><path style="fill:#f60;stroke-width:2.2712px" d="M148.235 731.93c-1.931-2.62-21.737-59.195-25.148-71.836-1.194-4.425-2.56-4.745-17.733-4.15-9.042.355-20.747-.447-26.01-1.782l-9.572-2.428-13.815 13.092s-12.743 12.617-18.432 11.687c-7.887-1.29-19.875-9.769-21.342-19.232-1.256-8.097 4.75-11.877 12.42-21.214l9.933-12.094-3.283-8.35c-1.805-4.591-4.413-14.64-5.795-22.328l-2.513-13.98-29.337-9.199c-16.136-5.059-33.656-10.448-38.933-11.976-5.278-1.528-9.575-3.806-9.548-5.061.027-1.255 13.026-17.076 28.888-35.157l28.84-32.874 30.52-7.834c16.786-4.308 34.183-8.756 38.66-9.883 6.302-1.587 11.79-6.4 24.305-21.316 32.337-38.54 92.662-88.033 136.714-112.165 22.599-12.38 54.002-25.639 74.812-31.586 31.187-8.913 75.382-12.993 83.374-7.698 4.94 3.274 5.049 29.587.224 54.624-14.248 73.93-61.155 150.838-135.918 222.846l-27.381 26.373-7.865 38.76c-5.413 26.677-9.033 39.633-11.614 41.562-2.063 1.542-13.706 12.029-25.873 23.304-35.102 32.528-36.079 33.285-38.578 29.896zm77.93-212.51c31.972-8.761 45.21-48.28 24.822-74.11-19.617-24.854-57.016-24.316-75.73 1.09-9.412 12.78-11.497 33.552-4.764 47.47 5.456 11.28 16.91 21.418 28.624 25.336 11.453 3.83 13.785 3.849 27.047.215z" id="path10498"/><path style="color:#000;visibility:visible;opacity:1;vector-effect:none;fill:#f60;fill-opacity:1;fill-rule:nonzero;stroke:none;stroke-width:8.13732px;stroke-linecap:round;stroke-linejoin:bevel;stroke-miterlimit:4;stroke-dasharray:none;stroke-dashoffset:0;stroke-opacity:1;marker:none;enable-background:accumulate;display:inline;overflow:visible" id="rect829" transform="rotate(-45.018)" d="M-837.41 475.885h347.243v25.365H-837.41z"/><rect style="color:#000;visibility:visible;opacity:1;vector-effect:none;fill:#f60;fill-opacity:1;fill-rule:nonzero;stroke:none;stroke-width:8.13732px;stroke-linecap:round;stroke-linejoin:bevel;stroke-miterlimit:4;stroke-dasharray:none;stroke-dashoffset:0;stroke-opacity:1;marker:none;enable-background:accumulate;display:inline;overflow:visible" id="rect829-3" width="279.069" height="25.254" x="-581.708" y="651.061" transform="rotate(-45.018 -23.547 222.912)" ry="0" clip-path="url('#clipPath955-3')"/><rect style="color:#000;visibility:visible;opacity:1;vector-effect:none;fill:#f60;fill-opacity:1;fill-rule:nonzero;stroke:none;stroke-width:8.13732px;stroke-linecap:round;stroke-linejoin:bevel;stroke-miterlimit:4;stroke-dasharray:none;stroke-dashoffset:0;stroke-opacity:1;marker:none;enable-background:accumulate;display:inline;overflow:visible" id="rect829-3-6" width="279.069" height="25.254" x="-581.518" y="550.504" transform="rotate(-45.018 -124.096 267.025)" ry="0" clip-path="url('#clipPath951-7')"/></g></svg>