<svg xmlns="http://www.w3.org/2000/svg" height="908.497" width="282.522" id="svg10486" version="1.1"><defs id="defs10490"><clipPath id="clipPath951" clipPathUnits="userSpaceOnUse"><rect ry="0" transform="rotate(90)" y="260.427" x="475.968" height="288.735" width="292.519" id="rect953" style="color:#000;visibility:visible;opacity:1;vector-effect:none;fill:#ff8;fill-opacity:.468182;fill-rule:nonzero;stroke:none;stroke-width:8.13732px;stroke-linecap:round;stroke-linejoin:bevel;stroke-miterlimit:4;stroke-dasharray:none;stroke-dashoffset:0;stroke-opacity:1;marker:none;enable-background:accumulate;display:inline;overflow:visible"/></clipPath><clipPath id="clipPath955" clipPathUnits="userSpaceOnUse"><rect ry="0" transform="rotate(90)" y="260.427" x="475.968" height="288.735" width="292.519" id="rect957" style="color:#000;visibility:visible;opacity:1;vector-effect:none;fill:#ff8;fill-opacity:.468182;fill-rule:nonzero;stroke:none;stroke-width:8.13732px;stroke-linecap:round;stroke-linejoin:bevel;stroke-miterlimit:4;stroke-dasharray:none;stroke-dashoffset:0;stroke-opacity:1;marker:none;enable-background:accumulate;display:inline;overflow:visible"/></clipPath></defs><g transform="translate(-175.665 -62.144)" id="g10494"><path id="path10498" d="M451.005 546.119c-3.219-.487-57.229-26.487-68.58-33.014-3.973-2.284-5.165-1.544-15.473 9.606-6.142 6.644-14.986 14.354-19.652 17.131l-8.485 5.051-.511 19.026s-.09 17.933-4.77 21.298c-6.489 4.665-20.96 7.146-28.69 1.492-6.614-4.838-5.039-11.757-6.219-23.783l-1.527-15.575-8.225-3.583c-4.524-1.97-13.473-7.232-19.887-11.691l-11.662-8.108-27.25 14.24c-14.986 7.832-31.186 16.41-35.998 19.061-4.812 2.651-9.46 4.08-10.33 3.173-.868-.907-2.863-21.286-4.432-45.287l-2.853-43.638 16.042-27.12c8.823-14.917 17.98-30.363 20.348-34.326 3.334-5.578 3.81-12.862 2.113-32.259-4.386-50.117 3.274-127.77 17.36-175.984 7.225-24.733 20.055-56.314 30.565-75.234 15.75-28.355 44.115-62.491 53.51-64.398 5.81-1.179 24.492 17.351 38.784 38.467 42.202 62.351 63.415 149.901 61.468 253.684l-.714 38.01 21.847 32.968c15.036 22.692 21.637 34.412 21.176 37.602-.368 2.548-1.186 18.197-1.817 34.774-1.82 47.821-1.975 49.047-6.138 48.417zM355.84 340.748c16.413-28.804-2.17-66.108-34.85-69.956-31.447-3.704-57.511 23.122-52.779 54.32 2.38 15.69 15.595 31.854 30.197 36.935 11.834 4.118 27.101 3.187 38.155-2.326 10.807-5.39 12.47-7.026 19.277-18.973z" style="fill:#fff;stroke-width:2.2712px"/><path transform="rotate(-90.018)" id="rect829" style="color:#000;visibility:visible;opacity:1;vector-effect:none;fill:#fff;fill-opacity:1;fill-rule:nonzero;stroke:none;stroke-width:8.13732px;stroke-linecap:round;stroke-linejoin:bevel;stroke-miterlimit:4;stroke-dasharray:none;stroke-dashoffset:0;stroke-opacity:1;marker:none;enable-background:accumulate;display:inline;overflow:visible" d="M-970.739 304.475h347.243v25.365h-347.243z"/><rect clip-path="url('#clipPath955')" ry="0" transform="rotate(-90.018 46.311 342.793)" y="651.061" x="-581.708" height="25.254" width="279.069" id="rect829-3" style="color:#000;visibility:visible;opacity:1;vector-effect:none;fill:#fff;fill-opacity:1;fill-rule:nonzero;stroke:none;stroke-width:8.13732px;stroke-linecap:round;stroke-linejoin:bevel;stroke-miterlimit:4;stroke-dasharray:none;stroke-dashoffset:0;stroke-opacity:1;marker:none;enable-background:accumulate;display:inline;overflow:visible"/><rect clip-path="url('#clipPath951')" ry="0" transform="rotate(-90.018 46.311 342.793)" y="550.504" x="-581.518" height="25.254" width="279.069" id="rect829-3-6" style="color:#000;visibility:visible;opacity:1;vector-effect:none;fill:#fff;fill-opacity:1;fill-rule:nonzero;stroke:none;stroke-width:8.13732px;stroke-linecap:round;stroke-linejoin:bevel;stroke-miterlimit:4;stroke-dasharray:none;stroke-dashoffset:0;stroke-opacity:1;marker:none;enable-background:accumulate;display:inline;overflow:visible"/></g></svg>