<?xml version="1.0" encoding="UTF-8" standalone="no"?>
<svg
   xmlns:dc="http://purl.org/dc/elements/1.1/"
   xmlns:cc="http://creativecommons.org/ns#"
   xmlns:rdf="http://www.w3.org/1999/02/22-rdf-syntax-ns#"
   xmlns:svg="http://www.w3.org/2000/svg"
   xmlns="http://www.w3.org/2000/svg"
   xmlns:sodipodi="http://sodipodi.sourceforge.net/DTD/sodipodi-0.dtd"
   xmlns:inkscape="http://www.inkscape.org/namespaces/inkscape"
   version="1.1"
   id="svg10486"
   width="550"
   height="550"
   viewBox="0 0 550 550.00001"
   sodipodi:docname="rocket_logo_orange_rotated.svg"
   inkscape:version="0.92.5 (2060ec1f9f, 2020-04-08)">
  <metadata
     id="metadata10492">
    <rdf:RDF>
      <cc:Work
         rdf:about="">
        <dc:format>image/svg+xml</dc:format>
        <dc:type
           rdf:resource="http://purl.org/dc/dcmitype/StillImage" />
        <dc:title></dc:title>
      </cc:Work>
    </rdf:RDF>
  </metadata>
  <defs
     id="defs10490">
    <inkscape:path-effect
       effect="bspline"
       id="path-effect866"
       is_visible="true"
       weight="33.333333"
       steps="2"
       helper_size="0"
       apply_no_weight="true"
       apply_with_weight="true"
       only_selected="false" />
    <clipPath
       clipPathUnits="userSpaceOnUse"
       id="clipPath951">
      <rect
         style="color:#000000;display:inline;overflow:visible;visibility:visible;opacity:1;vector-effect:none;fill:#ffff88;fill-opacity:0.46818183;fill-rule:nonzero;stroke:none;stroke-width:8.13732243;stroke-linecap:round;stroke-linejoin:bevel;stroke-miterlimit:4;stroke-dasharray:none;stroke-dashoffset:0;stroke-opacity:1;marker:none;enable-background:accumulate"
         id="rect953"
         width="292.51926"
         height="288.73456"
         x="475.96841"
         y="260.42725"
         transform="rotate(90)"
         ry="0" />
    </clipPath>
    <clipPath
       clipPathUnits="userSpaceOnUse"
       id="clipPath955">
      <rect
         style="color:#000000;display:inline;overflow:visible;visibility:visible;opacity:1;vector-effect:none;fill:#ffff88;fill-opacity:0.46818183;fill-rule:nonzero;stroke:none;stroke-width:8.13732243;stroke-linecap:round;stroke-linejoin:bevel;stroke-miterlimit:4;stroke-dasharray:none;stroke-dashoffset:0;stroke-opacity:1;marker:none;enable-background:accumulate"
         id="rect957"
         width="292.51926"
         height="288.73456"
         x="475.96841"
         y="260.42725"
         transform="rotate(90)"
         ry="0" />
    </clipPath>
    <clipPath
       clipPathUnits="userSpaceOnUse"
       id="clipPath955-3">
      <rect
         style="color:#000000;display:inline;overflow:visible;visibility:visible;opacity:1;vector-effect:none;fill:#ffff88;fill-opacity:0.46818183;fill-rule:nonzero;stroke:none;stroke-width:8.13732243;stroke-linecap:round;stroke-linejoin:bevel;stroke-miterlimit:4;stroke-dasharray:none;stroke-dashoffset:0;stroke-opacity:1;marker:none;enable-background:accumulate"
         id="rect957-6"
         width="292.51926"
         height="288.73456"
         x="475.96841"
         y="260.42725"
         transform="rotate(90)"
         ry="0" />
    </clipPath>
    <clipPath
       clipPathUnits="userSpaceOnUse"
       id="clipPath951-7">
      <rect
         style="color:#000000;display:inline;overflow:visible;visibility:visible;opacity:1;vector-effect:none;fill:#ffff88;fill-opacity:0.46818183;fill-rule:nonzero;stroke:none;stroke-width:8.13732243;stroke-linecap:round;stroke-linejoin:bevel;stroke-miterlimit:4;stroke-dasharray:none;stroke-dashoffset:0;stroke-opacity:1;marker:none;enable-background:accumulate"
         id="rect953-5"
         width="292.51926"
         height="288.73456"
         x="475.96841"
         y="260.42725"
         transform="rotate(90)"
         ry="0" />
    </clipPath>
  </defs>
  <sodipodi:namedview
     pagecolor="#ffffff"
     bordercolor="#666666"
     borderopacity="1"
     objecttolerance="10"
     gridtolerance="10"
     guidetolerance="10"
     inkscape:pageopacity="0"
     inkscape:pageshadow="2"
     inkscape:window-width="1920"
     inkscape:window-height="1163"
     id="namedview10488"
     showgrid="false"
     fit-margin-top="0"
     fit-margin-left="0"
     fit-margin-right="0"
     fit-margin-bottom="0"
     inkscape:pagecheckerboard="true"
     inkscape:zoom="0.6226719"
     inkscape:cx="215.76643"
     inkscape:cy="-73.105547"
     inkscape:window-x="1920"
     inkscape:window-y="0"
     inkscape:window-maximized="1"
     inkscape:current-layer="g10494"
     showguides="true"
     inkscape:guide-bbox="true" />
  <g
     inkscape:groupmode="layer"
     inkscape:label="Image"
     id="g10494"
     transform="translate(150.8194,-292.09375)">
    <path
       style="fill:#ff6600;stroke-width:2.27119994"
       d="m 148.23544,731.93057 c -1.93144,-2.62016 -21.73729,-59.19593 -25.14828,-71.83656 -1.19417,-4.42541 -2.56037,-4.74509 -17.73354,-4.14955 -9.04185,0.35492 -20.74656,-0.44697 -26.01045,-1.78266 l -9.57076,-2.42795 -13.815,13.09214 c 0,0 -12.74359,12.61673 -18.43221,11.68689 -7.88747,-1.28929 -19.87491,-9.76858 -21.34252,-19.23185 -1.25577,-8.09741 4.75055,-11.87654 12.42003,-21.21437 l 9.9331,-12.09387 -3.28237,-8.34922 c -1.80529,-4.59206 -4.4133,-14.6401 -5.79552,-22.32897 l -2.51316,-13.97974 -29.3372204,-9.1985 C -18.52793,565.05718 -36.04778,559.66762 -41.325483,558.1396 c -5.277675,-1.52804 -9.574056,-3.80529 -9.547441,-5.06058 0.0266,-1.25527 13.026184,-17.07585 28.887804,-35.15679 L 6.8543796,485.04779 37.37482,477.21412 c 16.78626,-4.3085 34.18328,-8.75599 38.66005,-9.88328 6.30171,-1.58685 11.78965,-6.3999 24.30503,-21.31598 32.33697,-38.53991 92.66182,-88.03249 136.71403,-112.16488 22.59885,-12.37997 54.00216,-25.63848 74.81207,-31.58573 31.18651,-8.91276 75.38209,-12.99356 83.37386,-7.69832 4.94109,3.27387 5.04882,29.58721 0.22368,54.62447 -14.24772,73.93 -61.1548,150.83733 -135.91746,222.84575 l -27.38137,26.37267 -7.86441,38.75953 c -5.41307,26.6781 -9.03332,39.63325 -11.6145,41.56258 -2.06256,1.54168 -13.7055,12.02861 -25.87326,23.30427 -35.10171,32.52821 -36.07838,33.28508 -38.5771,29.89537 z m 77.92869,-212.50979 c 31.97322,-8.76179 45.20995,-48.28041 24.82309,-74.1101 -19.61715,-24.85448 -57.01615,-24.31618 -75.72941,1.09003 -9.41236,12.77875 -11.49743,33.5514 -4.76482,47.46977 5.45634,11.27993 16.90947,21.41719 28.62396,25.33529 11.45327,3.83073 13.78512,3.84926 27.04718,0.21501 z"
       id="path10498"
       inkscape:connector-curvature="0"
       sodipodi:nodetypes="scccccsascsccsccccsscsscsscscsscsscsc" />
    <rect
       style="color:#000000;display:inline;overflow:visible;visibility:visible;opacity:1;vector-effect:none;fill:#ff6600;fill-opacity:1;fill-rule:nonzero;stroke:none;stroke-width:8.13732243;stroke-linecap:round;stroke-linejoin:bevel;stroke-miterlimit:4;stroke-dasharray:none;stroke-dashoffset:0;stroke-opacity:1;marker:none;enable-background:accumulate"
       id="rect829"
       width="347.24274"
       height="25.365383"
       x="-837.40955"
       y="475.88492"
       transform="rotate(-45.018367)" />
    <rect
       style="color:#000000;display:inline;overflow:visible;visibility:visible;opacity:1;vector-effect:none;fill:#ff6600;fill-opacity:1;fill-rule:nonzero;stroke:none;stroke-width:8.13732243;stroke-linecap:round;stroke-linejoin:bevel;stroke-miterlimit:4;stroke-dasharray:none;stroke-dashoffset:0;stroke-opacity:1;marker:none;enable-background:accumulate"
       id="rect829-3"
       width="279.06894"
       height="25.253778"
       x="-581.70795"
       y="651.06146"
       transform="rotate(-45.018367,-23.547243,222.91196)"
       ry="0"
       clip-path="url(#clipPath955-3)" />
    <rect
       style="color:#000000;display:inline;overflow:visible;visibility:visible;opacity:1;vector-effect:none;fill:#ff6600;fill-opacity:1;fill-rule:nonzero;stroke:none;stroke-width:8.13732243;stroke-linecap:round;stroke-linejoin:bevel;stroke-miterlimit:4;stroke-dasharray:none;stroke-dashoffset:0;stroke-opacity:1;marker:none;enable-background:accumulate"
       id="rect829-3-6"
       width="279.06894"
       height="25.253778"
       x="-581.51819"
       y="550.50421"
       transform="rotate(-45.018367,-124.09607,267.02501)"
       ry="0"
       clip-path="url(#clipPath951-7)" />
  </g>
</svg>
